<mxfile host="app.diagrams.net" modified="2022-01-10T09:05:39.884Z" agent="5.0 (Windows NT 10.0; Win64; x64) AppleWebKit/537.36 (KHTML, like Gecko) Chrome/97.0.4692.71 Safari/537.36" etag="ROYRZsLkM7XFCmzuFPLc" version="15.4.1" type="github">
  <diagram id="yPxyJZ8AM_hMuL3Unpa9" name="complex gitflow">
    <mxGraphModel dx="4262" dy="2854" grid="1" gridSize="10" guides="1" tooltips="1" connect="1" arrows="1" fold="1" page="1" pageScale="1" pageWidth="1100" pageHeight="850" math="0" shadow="0">
      <root>
        <mxCell id="0" />
        <mxCell id="1" parent="0" />
        <mxCell id="ADxAo6VJDCDAHwZJdcY--39" value="Archer Overview" style="swimlane;rounded=1;strokeColor=#000000;fillColor=#BAC8D3;gradientColor=none;swimlaneLine=1;shadow=0;swimlaneFillColor=#FFFFFF;" parent="1" vertex="1">
          <mxGeometry x="-1720" y="-240" width="840" height="130" as="geometry">
            <mxRectangle x="30" y="400" width="190" height="23" as="alternateBounds" />
          </mxGeometry>
        </mxCell>
        <mxCell id="WrQY5icMR6syhaIgD9Ea-63" value="&lt;font style=&quot;font-size: 10px&quot;&gt;FastQ&lt;br&gt;&amp;nbsp;Pair &amp;amp; Size &lt;br&gt;Validation&lt;/font&gt;" style="shape=step;perimeter=stepPerimeter;whiteSpace=wrap;html=1;fixedSize=1;gradientDirection=east;fillColor=#FFF2CC;strokeColor=#9673a6;fontStyle=1" parent="ADxAo6VJDCDAHwZJdcY--39" vertex="1">
          <mxGeometry x="30" y="35" width="120" height="80" as="geometry" />
        </mxCell>
        <mxCell id="ADxAo6VJDCDAHwZJdcY--184" value="&lt;font style=&quot;font-size: 10px&quot;&gt;GCS Data Sync&lt;/font&gt;" style="shape=step;perimeter=stepPerimeter;whiteSpace=wrap;html=1;fixedSize=1;gradientDirection=east;fillColor=#FFF2CC;strokeColor=#9673a6;fontStyle=1" parent="ADxAo6VJDCDAHwZJdcY--39" vertex="1">
          <mxGeometry x="470" y="35" width="120" height="80" as="geometry" />
        </mxCell>
        <mxCell id="ADxAo6VJDCDAHwZJdcY--186" value="&lt;span style=&quot;font-size: 10px&quot;&gt;NgsReviewer&lt;/span&gt;" style="shape=step;perimeter=stepPerimeter;whiteSpace=wrap;html=1;fixedSize=1;gradientDirection=east;fillColor=#FFF2CC;strokeColor=#d79b00;fontStyle=1" parent="ADxAo6VJDCDAHwZJdcY--39" vertex="1">
          <mxGeometry x="690" y="35" width="120" height="80" as="geometry" />
        </mxCell>
        <mxCell id="ADxAo6VJDCDAHwZJdcY--181" value="&lt;font style=&quot;font-size: 10px&quot;&gt;POSCON &lt;br&gt;Verification&lt;/font&gt;" style="shape=step;perimeter=stepPerimeter;whiteSpace=wrap;html=1;fixedSize=1;gradientDirection=east;fillColor=#FFF2CC;strokeColor=#9673a6;fontStyle=1" parent="ADxAo6VJDCDAHwZJdcY--39" vertex="1">
          <mxGeometry x="140" y="35" width="120" height="80" as="geometry" />
        </mxCell>
        <mxCell id="ADxAo6VJDCDAHwZJdcY--182" value="&lt;font style=&quot;font-size: 10px&quot;&gt;Archer &lt;br&gt;Analysis&lt;br&gt;&lt;/font&gt;" style="shape=step;perimeter=stepPerimeter;whiteSpace=wrap;html=1;fixedSize=1;gradientDirection=east;fillColor=#FFF2CC;strokeColor=#9673a6;fontStyle=1" parent="ADxAo6VJDCDAHwZJdcY--39" vertex="1">
          <mxGeometry x="250" y="35" width="120" height="80" as="geometry" />
        </mxCell>
        <mxCell id="ADxAo6VJDCDAHwZJdcY--183" value="&lt;font style=&quot;font-size: 10px&quot;&gt;&amp;nbsp; &amp;nbsp; Isilon Data Sync&lt;/font&gt;" style="shape=step;perimeter=stepPerimeter;whiteSpace=wrap;html=1;fixedSize=1;gradientDirection=east;fillColor=#FFF2CC;strokeColor=#9673a6;fontStyle=1" parent="ADxAo6VJDCDAHwZJdcY--39" vertex="1">
          <mxGeometry x="360" y="35" width="120" height="80" as="geometry" />
        </mxCell>
        <mxCell id="ADxAo6VJDCDAHwZJdcY--185" value="&lt;font style=&quot;font-size: 10px&quot;&gt;GBQ Upload&lt;/font&gt;" style="shape=step;perimeter=stepPerimeter;whiteSpace=wrap;html=1;fixedSize=1;gradientDirection=east;fillColor=#FFF2CC;strokeColor=#82b366;fontStyle=1" parent="ADxAo6VJDCDAHwZJdcY--39" vertex="1">
          <mxGeometry x="580" y="35" width="120" height="80" as="geometry" />
        </mxCell>
        <mxCell id="ADxAo6VJDCDAHwZJdcY--137" value="" style="endArrow=none;dashed=1;html=1;strokeWidth=3;" parent="1" edge="1">
          <mxGeometry width="50" height="50" relative="1" as="geometry">
            <mxPoint x="1005" y="-270" as="sourcePoint" />
            <mxPoint x="-1155" y="-270" as="targetPoint" />
          </mxGeometry>
        </mxCell>
        <mxCell id="ADxAo6VJDCDAHwZJdcY--486" value="Google Cloud" style="swimlane;rounded=1;shadow=0;fontSize=23;strokeColor=#000000;strokeWidth=1;fillColor=#F5F5F5;gradientColor=none;swimlaneFillColor=default;startSize=50;" parent="1" vertex="1">
          <mxGeometry x="-150" y="-1005" width="940" height="600" as="geometry">
            <mxRectangle x="-1150" y="-1420" width="90" height="23" as="alternateBounds" />
          </mxGeometry>
        </mxCell>
        <mxCell id="ADxAo6VJDCDAHwZJdcY--481" value="" style="shape=waypoint;sketch=0;fillStyle=solid;size=6;pointerEvents=1;points=[];fillColor=none;resizable=0;rotatable=0;perimeter=centerPerimeter;snapToPoint=1;rounded=1;shadow=0;fontSize=9;strokeColor=#000000;strokeWidth=1;opacity=0;" parent="ADxAo6VJDCDAHwZJdcY--486" vertex="1">
          <mxGeometry x="1241" y="820" width="40" height="40" as="geometry" />
        </mxCell>
        <mxCell id="yWk265zMaQrSM_9iUtJS-21" value="" style="group" parent="ADxAo6VJDCDAHwZJdcY--486" vertex="1" connectable="0">
          <mxGeometry x="50" y="47.5" width="880" height="552.5" as="geometry" />
        </mxCell>
        <mxCell id="WrQY5icMR6syhaIgD9Ea-97" value="" style="ellipse;shape=cloud;whiteSpace=wrap;html=1;gradientDirection=east;strokeColor=#82b366;fillColor=#d5e8d4;" parent="yWk265zMaQrSM_9iUtJS-21" vertex="1">
          <mxGeometry width="880" height="552.5000000000001" as="geometry" />
        </mxCell>
        <mxCell id="WrQY5icMR6syhaIgD9Ea-105" value="" style="strokeColor=#666666;shadow=1;strokeWidth=1;rounded=1;absoluteArcSize=1;arcSize=2;gradientDirection=east;fillColor=#f5f5f5;fontColor=#333333;" parent="yWk265zMaQrSM_9iUtJS-21" vertex="1">
          <mxGeometry x="347.37" y="378.3" width="142.63" height="42.23" as="geometry" />
        </mxCell>
        <mxCell id="WrQY5icMR6syhaIgD9Ea-106" value="&lt;font color=&quot;#000000&quot;&gt;archer&lt;/font&gt;&lt;br&gt;BigQuery" style="dashed=0;connectable=0;html=1;fillColor=#5184F3;strokeColor=none;shape=mxgraph.gcp2.hexIcon;prIcon=bigquery;part=1;labelPosition=right;verticalLabelPosition=middle;align=left;verticalAlign=middle;spacingLeft=5;fontColor=#999999;fontSize=12;" parent="WrQY5icMR6syhaIgD9Ea-105" vertex="1">
          <mxGeometry y="0.5" width="44" height="39" relative="1" as="geometry">
            <mxPoint x="5" y="-19.5" as="offset" />
          </mxGeometry>
        </mxCell>
        <mxCell id="WrQY5icMR6syhaIgD9Ea-107" value="" style="strokeColor=#666666;shadow=1;strokeWidth=1;rounded=1;absoluteArcSize=1;arcSize=2;gradientDirection=east;fillColor=#f5f5f5;fontColor=#333333;" parent="yWk265zMaQrSM_9iUtJS-21" vertex="1">
          <mxGeometry x="310" y="237.54" width="130" height="42.23" as="geometry" />
        </mxCell>
        <mxCell id="WrQY5icMR6syhaIgD9Ea-108" value="Cloud&#xa;Functions" style="dashed=0;connectable=0;html=1;fillColor=#5184F3;strokeColor=none;shape=mxgraph.gcp2.hexIcon;prIcon=cloud_functions;part=1;labelPosition=right;verticalLabelPosition=middle;align=left;verticalAlign=middle;spacingLeft=5;fontColor=#999999;fontSize=12;" parent="WrQY5icMR6syhaIgD9Ea-107" vertex="1">
          <mxGeometry y="0.5" width="44" height="39" relative="1" as="geometry">
            <mxPoint x="5" y="-19.5" as="offset" />
          </mxGeometry>
        </mxCell>
        <mxCell id="ADxAo6VJDCDAHwZJdcY--43" value="" style="strokeColor=#666666;shadow=1;strokeWidth=1;rounded=1;absoluteArcSize=1;arcSize=2;fillColor=#F5F5F5;gradientColor=none;" parent="yWk265zMaQrSM_9iUtJS-21" vertex="1">
          <mxGeometry x="474.74" y="237.54" width="115.26" height="42.23" as="geometry" />
        </mxCell>
        <mxCell id="ADxAo6VJDCDAHwZJdcY--44" value="Cloud&#xa;Pub/Sub" style="sketch=0;dashed=0;connectable=0;html=1;fillColor=#5184F3;strokeColor=none;shape=mxgraph.gcp2.hexIcon;prIcon=cloud_pubsub;part=1;labelPosition=right;verticalLabelPosition=middle;align=left;verticalAlign=middle;spacingLeft=5;fontColor=#999999;fontSize=12;" parent="ADxAo6VJDCDAHwZJdcY--43" vertex="1">
          <mxGeometry y="0.5" width="44" height="39" relative="1" as="geometry">
            <mxPoint x="5" y="-19.5" as="offset" />
          </mxGeometry>
        </mxCell>
        <mxCell id="ADxAo6VJDCDAHwZJdcY--97" value="psjh-mgl" style="rounded=0;whiteSpace=wrap;html=1;shadow=0;" parent="yWk265zMaQrSM_9iUtJS-21" vertex="1">
          <mxGeometry x="416.8421052631578" y="131.96656050955417" width="69.47368421052632" height="42.22929936305732" as="geometry" />
        </mxCell>
        <mxCell id="WrQY5icMR6syhaIgD9Ea-103" value="" style="strokeColor=#666666;shadow=1;strokeWidth=1;rounded=1;absoluteArcSize=1;arcSize=2;gradientDirection=east;fillColor=#f5f5f5;fontColor=#333333;" parent="yWk265zMaQrSM_9iUtJS-21" vertex="1">
          <mxGeometry x="451.58" y="314.96" width="148.42" height="42.23" as="geometry" />
        </mxCell>
        <mxCell id="WrQY5icMR6syhaIgD9Ea-104" value="&lt;font style=&quot;font-size: 10px&quot;&gt;&lt;font color=&quot;#000000&quot; style=&quot;font-size: 10px&quot;&gt;reviewer_archer&lt;/font&gt;&lt;br&gt;&lt;/font&gt;Cloud Storage" style="dashed=0;connectable=0;html=1;fillColor=#5184F3;strokeColor=none;shape=mxgraph.gcp2.hexIcon;prIcon=cloud_storage;part=1;labelPosition=right;verticalLabelPosition=middle;align=left;verticalAlign=middle;spacingLeft=5;fontColor=#999999;fontSize=12;" parent="WrQY5icMR6syhaIgD9Ea-103" vertex="1">
          <mxGeometry y="0.5" width="44" height="39" relative="1" as="geometry">
            <mxPoint x="5" y="-19.5" as="offset" />
          </mxGeometry>
        </mxCell>
        <mxCell id="ADxAo6VJDCDAHwZJdcY--48" value="" style="endArrow=classic;html=1;exitX=0;exitY=0.5;exitDx=0;exitDy=0;entryX=1;entryY=0.5;entryDx=0;entryDy=0;fillColor=#e1d5e7;strokeColor=#000000;" parent="yWk265zMaQrSM_9iUtJS-21" source="ADxAo6VJDCDAHwZJdcY--43" target="WrQY5icMR6syhaIgD9Ea-107" edge="1">
          <mxGeometry width="50" height="50" relative="1" as="geometry">
            <mxPoint x="764.2105263157895" y="710.859872611465" as="sourcePoint" />
            <mxPoint x="793.1578947368422" y="675.6687898089172" as="targetPoint" />
          </mxGeometry>
        </mxCell>
        <mxCell id="ADxAo6VJDCDAHwZJdcY--46" style="edgeStyle=orthogonalEdgeStyle;rounded=0;orthogonalLoop=1;jettySize=auto;html=1;entryX=0.581;entryY=0.031;entryDx=0;entryDy=0;entryPerimeter=0;exitX=0;exitY=0.5;exitDx=0;exitDy=0;" parent="yWk265zMaQrSM_9iUtJS-21" source="WrQY5icMR6syhaIgD9Ea-103" target="WrQY5icMR6syhaIgD9Ea-105" edge="1">
          <mxGeometry relative="1" as="geometry">
            <mxPoint x="688.9473684210526" y="513.7898089171977" as="targetPoint" />
          </mxGeometry>
        </mxCell>
        <mxCell id="ADxAo6VJDCDAHwZJdcY--45" style="edgeStyle=orthogonalEdgeStyle;rounded=0;orthogonalLoop=1;jettySize=auto;html=1;entryX=0.5;entryY=0;entryDx=0;entryDy=0;" parent="yWk265zMaQrSM_9iUtJS-21" source="WrQY5icMR6syhaIgD9Ea-107" target="WrQY5icMR6syhaIgD9Ea-103" edge="1">
          <mxGeometry relative="1" as="geometry" />
        </mxCell>
        <mxCell id="ADxAo6VJDCDAHwZJdcY--487" value="Providence" style="swimlane;rounded=1;shadow=0;fontSize=23;strokeColor=#000000;strokeWidth=1;fillColor=#F5F5F5;gradientColor=none;swimlaneFillColor=default;startSize=40;" parent="1" vertex="1">
          <mxGeometry x="-860" y="-250" width="1900" height="540" as="geometry">
            <mxRectangle x="-1040" y="-230" width="110" height="23" as="alternateBounds" />
          </mxGeometry>
        </mxCell>
        <mxCell id="ADxAo6VJDCDAHwZJdcY--169" value="PPMC Data Center" style="swimlane;rounded=1;shadow=0;strokeColor=#666666;fillColor=#F5F5F5;gradientColor=none;startSize=50;swimlaneFillColor=default;" parent="ADxAo6VJDCDAHwZJdcY--487" vertex="1">
          <mxGeometry x="50" y="100" width="1280" height="320" as="geometry">
            <mxRectangle x="-2060" y="100" width="130" height="23" as="alternateBounds" />
          </mxGeometry>
        </mxCell>
        <mxCell id="ADxAo6VJDCDAHwZJdcY--201" value="EsxCluster" style="swimlane;rounded=1;shadow=0;startSize=30;fillColor=#F5F5F5;swimlaneFillColor=default;" parent="ADxAo6VJDCDAHwZJdcY--169" vertex="1">
          <mxGeometry y="50" width="600" height="240" as="geometry">
            <mxRectangle y="50" width="100" height="30" as="alternateBounds" />
          </mxGeometry>
        </mxCell>
        <mxCell id="ADxAo6VJDCDAHwZJdcY--212" value="Utils Server" style="swimlane;rounded=1;shadow=0;strokeColor=#666666;fillColor=#F5F5F5;gradientColor=none;startSize=30;" parent="ADxAo6VJDCDAHwZJdcY--201" vertex="1">
          <mxGeometry y="30" width="220" height="130" as="geometry">
            <mxRectangle y="30" width="70" height="30" as="alternateBounds" />
          </mxGeometry>
        </mxCell>
        <mxCell id="ADxAo6VJDCDAHwZJdcY--222" value="" style="group" parent="ADxAo6VJDCDAHwZJdcY--212" vertex="1" connectable="0">
          <mxGeometry y="30" width="200" height="100" as="geometry" />
        </mxCell>
        <mxCell id="ADxAo6VJDCDAHwZJdcY--217" value="" style="group" parent="ADxAo6VJDCDAHwZJdcY--222" vertex="1" connectable="0">
          <mxGeometry width="200" height="50" as="geometry" />
        </mxCell>
        <mxCell id="ADxAo6VJDCDAHwZJdcY--213" value="" style="rounded=0;whiteSpace=wrap;html=1;" parent="ADxAo6VJDCDAHwZJdcY--217" vertex="1">
          <mxGeometry width="200" height="50" as="geometry" />
        </mxCell>
        <mxCell id="ADxAo6VJDCDAHwZJdcY--214" value="" style="ellipse;whiteSpace=wrap;html=1;gradientDirection=east;fillColor=#e1d5e7;strokeColor=#9673a6;" parent="ADxAo6VJDCDAHwZJdcY--217" vertex="1">
          <mxGeometry x="10" y="10" width="60" height="30" as="geometry" />
        </mxCell>
        <mxCell id="ADxAo6VJDCDAHwZJdcY--215" value="&lt;b&gt;&lt;font style=&quot;font-size: 14px&quot;&gt;Genops&lt;/font&gt;&lt;/b&gt;" style="text;html=1;strokeColor=none;fillColor=none;align=center;verticalAlign=middle;whiteSpace=wrap;rounded=0;" parent="ADxAo6VJDCDAHwZJdcY--217" vertex="1">
          <mxGeometry x="80" y="15" width="100" height="20" as="geometry" />
        </mxCell>
        <mxCell id="ADxAo6VJDCDAHwZJdcY--448" value="" style="shape=waypoint;sketch=0;fillStyle=solid;size=6;pointerEvents=1;points=[];fillColor=none;resizable=0;rotatable=0;perimeter=centerPerimeter;snapToPoint=1;rounded=1;shadow=0;strokeColor=#000000;opacity=0;" parent="ADxAo6VJDCDAHwZJdcY--217" vertex="1">
          <mxGeometry x="20" y="5" width="40" height="40" as="geometry" />
        </mxCell>
        <mxCell id="ADxAo6VJDCDAHwZJdcY--218" value="" style="group" parent="ADxAo6VJDCDAHwZJdcY--222" vertex="1" connectable="0">
          <mxGeometry y="50" width="200" height="50" as="geometry" />
        </mxCell>
        <mxCell id="ADxAo6VJDCDAHwZJdcY--219" value="" style="rounded=0;whiteSpace=wrap;html=1;" parent="ADxAo6VJDCDAHwZJdcY--218" vertex="1">
          <mxGeometry width="200" height="50" as="geometry" />
        </mxCell>
        <mxCell id="ADxAo6VJDCDAHwZJdcY--220" value="" style="ellipse;whiteSpace=wrap;html=1;gradientDirection=east;fillColor=#6d8764;strokeColor=#3A5431;fontColor=#ffffff;" parent="ADxAo6VJDCDAHwZJdcY--218" vertex="1">
          <mxGeometry x="10" y="10" width="60" height="30" as="geometry" />
        </mxCell>
        <mxCell id="ADxAo6VJDCDAHwZJdcY--221" value="&lt;b&gt;&lt;font style=&quot;font-size: 14px&quot;&gt;CronJobs&lt;/font&gt;&lt;/b&gt;" style="text;html=1;strokeColor=none;fillColor=none;align=center;verticalAlign=middle;whiteSpace=wrap;rounded=0;" parent="ADxAo6VJDCDAHwZJdcY--218" vertex="1">
          <mxGeometry x="80" y="15" width="100" height="20" as="geometry" />
        </mxCell>
        <mxCell id="ADxAo6VJDCDAHwZJdcY--495" value="" style="endArrow=none;html=1;fontSize=9;strokeColor=#b85450;strokeWidth=1;exitX=0;exitY=1;exitDx=0;exitDy=0;entryX=0;entryY=0;entryDx=0;entryDy=0;endFill=0;fillColor=#f8cecc;" parent="ADxAo6VJDCDAHwZJdcY--218" source="ADxAo6VJDCDAHwZJdcY--219" target="ADxAo6VJDCDAHwZJdcY--219" edge="1">
          <mxGeometry width="50" height="50" relative="1" as="geometry">
            <mxPoint x="-100" y="50" as="sourcePoint" />
            <mxPoint x="-50" as="targetPoint" />
          </mxGeometry>
        </mxCell>
        <mxCell id="ADxAo6VJDCDAHwZJdcY--496" value="" style="endArrow=classic;html=1;fontSize=9;strokeColor=#b85450;strokeWidth=1;exitX=0;exitY=0;exitDx=0;exitDy=0;entryX=0.47;entryY=0.426;entryDx=0;entryDy=0;entryPerimeter=0;fillColor=#f8cecc;" parent="ADxAo6VJDCDAHwZJdcY--222" source="ADxAo6VJDCDAHwZJdcY--219" target="ADxAo6VJDCDAHwZJdcY--448" edge="1">
          <mxGeometry width="50" height="50" relative="1" as="geometry">
            <mxPoint x="-120" y="130" as="sourcePoint" />
            <mxPoint x="-70" y="80" as="targetPoint" />
          </mxGeometry>
        </mxCell>
        <mxCell id="ADxAo6VJDCDAHwZJdcY--458" value="" style="shape=waypoint;sketch=0;fillStyle=solid;size=6;pointerEvents=1;points=[];fillColor=none;resizable=0;rotatable=0;perimeter=centerPerimeter;snapToPoint=1;rounded=1;shadow=0;fontSize=9;strokeColor=#000000;opacity=0;" parent="ADxAo6VJDCDAHwZJdcY--212" vertex="1">
          <mxGeometry x="180" y="10" width="40" height="40" as="geometry" />
        </mxCell>
        <mxCell id="ADxAo6VJDCDAHwZJdcY--224" value="NgsReviewer VM" style="swimlane;rounded=1;shadow=0;startSize=30;fillColor=#F5F5F5;" parent="ADxAo6VJDCDAHwZJdcY--201" vertex="1">
          <mxGeometry x="200" y="30" width="200" height="130" as="geometry">
            <mxRectangle x="200" y="30" width="70" height="30" as="alternateBounds" />
          </mxGeometry>
        </mxCell>
        <mxCell id="ADxAo6VJDCDAHwZJdcY--225" value="" style="group;fillColor=#ffe6cc;strokeColor=#d79b00;" parent="ADxAo6VJDCDAHwZJdcY--224" vertex="1" connectable="0">
          <mxGeometry y="30" width="200" height="100" as="geometry" />
        </mxCell>
        <mxCell id="ADxAo6VJDCDAHwZJdcY--226" value="" style="group" parent="ADxAo6VJDCDAHwZJdcY--225" vertex="1" connectable="0">
          <mxGeometry width="200" height="50" as="geometry" />
        </mxCell>
        <mxCell id="ADxAo6VJDCDAHwZJdcY--227" value="" style="rounded=0;whiteSpace=wrap;html=1;" parent="ADxAo6VJDCDAHwZJdcY--226" vertex="1">
          <mxGeometry width="200" height="50" as="geometry" />
        </mxCell>
        <mxCell id="ADxAo6VJDCDAHwZJdcY--228" value="" style="ellipse;whiteSpace=wrap;html=1;gradientDirection=east;fillColor=#ffe6cc;strokeColor=#d79b00;" parent="ADxAo6VJDCDAHwZJdcY--226" vertex="1">
          <mxGeometry x="10" y="10" width="60" height="30" as="geometry" />
        </mxCell>
        <mxCell id="ADxAo6VJDCDAHwZJdcY--229" value="&lt;b&gt;&lt;font style=&quot;font-size: 14px&quot;&gt;BigReview App&lt;/font&gt;&lt;/b&gt;" style="text;html=1;strokeColor=none;fillColor=none;align=center;verticalAlign=middle;whiteSpace=wrap;rounded=0;" parent="ADxAo6VJDCDAHwZJdcY--226" vertex="1">
          <mxGeometry x="80" y="15" width="100" height="20" as="geometry" />
        </mxCell>
        <mxCell id="ADxAo6VJDCDAHwZJdcY--444" value="" style="shape=waypoint;sketch=0;fillStyle=solid;size=6;pointerEvents=1;points=[];fillColor=none;resizable=0;rotatable=0;perimeter=centerPerimeter;snapToPoint=1;rounded=1;shadow=0;strokeColor=#000000;opacity=0;" parent="ADxAo6VJDCDAHwZJdcY--226" vertex="1">
          <mxGeometry x="20" y="5" width="40" height="40" as="geometry" />
        </mxCell>
        <mxCell id="ADxAo6VJDCDAHwZJdcY--459" value="" style="endArrow=classic;html=1;fontSize=9;strokeWidth=1;entryX=0.39;entryY=0.519;entryDx=0;entryDy=0;entryPerimeter=0;fillColor=#ffe6cc;strokeColor=#d79b00;exitX=0;exitY=0;exitDx=0;exitDy=0;" parent="ADxAo6VJDCDAHwZJdcY--226" source="ADxAo6VJDCDAHwZJdcY--227" target="ADxAo6VJDCDAHwZJdcY--444" edge="1">
          <mxGeometry width="50" height="50" relative="1" as="geometry">
            <mxPoint x="10" as="sourcePoint" />
            <mxPoint x="-20" y="-170" as="targetPoint" />
          </mxGeometry>
        </mxCell>
        <mxCell id="ADxAo6VJDCDAHwZJdcY--230" value="" style="group" parent="ADxAo6VJDCDAHwZJdcY--225" vertex="1" connectable="0">
          <mxGeometry y="50" width="200" height="50" as="geometry" />
        </mxCell>
        <mxCell id="ADxAo6VJDCDAHwZJdcY--231" value="" style="rounded=0;whiteSpace=wrap;html=1;" parent="ADxAo6VJDCDAHwZJdcY--230" vertex="1">
          <mxGeometry width="200" height="50" as="geometry" />
        </mxCell>
        <mxCell id="ADxAo6VJDCDAHwZJdcY--232" value="" style="ellipse;whiteSpace=wrap;html=1;gradientDirection=east;" parent="ADxAo6VJDCDAHwZJdcY--230" vertex="1">
          <mxGeometry x="10" y="10" width="60" height="30" as="geometry" />
        </mxCell>
        <mxCell id="ADxAo6VJDCDAHwZJdcY--233" value="&lt;b&gt;&lt;font style=&quot;font-size: 14px&quot;&gt;NgsReviewer App&lt;/font&gt;&lt;/b&gt;" style="text;html=1;strokeColor=none;fillColor=none;align=center;verticalAlign=middle;whiteSpace=wrap;rounded=0;" parent="ADxAo6VJDCDAHwZJdcY--230" vertex="1">
          <mxGeometry x="80" y="15" width="100" height="20" as="geometry" />
        </mxCell>
        <mxCell id="ADxAo6VJDCDAHwZJdcY--202" value="Archer VM" style="swimlane;rounded=1;shadow=0;strokeColor=#666666;fillColor=#F5F5F5;gradientColor=none;startSize=30;" parent="ADxAo6VJDCDAHwZJdcY--201" vertex="1">
          <mxGeometry x="200" y="160" width="200" height="75" as="geometry">
            <mxRectangle x="200" y="160" width="70" height="30" as="alternateBounds" />
          </mxGeometry>
        </mxCell>
        <mxCell id="ADxAo6VJDCDAHwZJdcY--203" value="" style="rounded=0;whiteSpace=wrap;html=1;" parent="ADxAo6VJDCDAHwZJdcY--202" vertex="1">
          <mxGeometry y="30" width="200" height="50" as="geometry" />
        </mxCell>
        <mxCell id="ADxAo6VJDCDAHwZJdcY--205" value="Archer" style="ellipse;whiteSpace=wrap;html=1;gradientDirection=east;fillColor=#fff2cc;strokeColor=#d6b656;" parent="ADxAo6VJDCDAHwZJdcY--202" vertex="1">
          <mxGeometry x="10" y="40" width="60" height="30" as="geometry" />
        </mxCell>
        <mxCell id="ADxAo6VJDCDAHwZJdcY--161" value="&lt;b&gt;&lt;font style=&quot;font-size: 14px&quot;&gt;&amp;nbsp;170.220.59.171&lt;/font&gt;&lt;/b&gt;" style="text;html=1;strokeColor=none;fillColor=none;align=center;verticalAlign=middle;whiteSpace=wrap;rounded=0;" parent="ADxAo6VJDCDAHwZJdcY--202" vertex="1">
          <mxGeometry x="80" y="45" width="100" height="20" as="geometry" />
        </mxCell>
        <mxCell id="ADxAo6VJDCDAHwZJdcY--477" value="" style="endArrow=classic;html=1;fontSize=9;strokeWidth=1;exitX=1;exitY=0;exitDx=0;exitDy=0;entryX=1;entryY=0.5;entryDx=0;entryDy=0;fillColor=#e1d5e7;strokeColor=#9673a6;endFill=1;" parent="ADxAo6VJDCDAHwZJdcY--202" source="ADxAo6VJDCDAHwZJdcY--203" target="ADxAo6VJDCDAHwZJdcY--205" edge="1">
          <mxGeometry width="50" height="50" relative="1" as="geometry">
            <mxPoint x="100" y="180" as="sourcePoint" />
            <mxPoint x="150" y="130" as="targetPoint" />
          </mxGeometry>
        </mxCell>
        <mxCell id="ADxAo6VJDCDAHwZJdcY--264" value="Lims VM" style="swimlane;rounded=1;shadow=0;strokeColor=#666666;fillColor=#F5F5F5;gradientColor=none;startSize=30;" parent="ADxAo6VJDCDAHwZJdcY--201" vertex="1">
          <mxGeometry y="160" width="200" height="75" as="geometry">
            <mxRectangle y="160" width="70" height="30" as="alternateBounds" />
          </mxGeometry>
        </mxCell>
        <mxCell id="ADxAo6VJDCDAHwZJdcY--265" value="" style="rounded=0;whiteSpace=wrap;html=1;" parent="ADxAo6VJDCDAHwZJdcY--264" vertex="1">
          <mxGeometry y="30" width="200" height="50" as="geometry" />
        </mxCell>
        <mxCell id="ADxAo6VJDCDAHwZJdcY--266" value="" style="ellipse;whiteSpace=wrap;html=1;gradientDirection=east;fillColor=#ffcccc;strokeColor=default;" parent="ADxAo6VJDCDAHwZJdcY--264" vertex="1">
          <mxGeometry x="10" y="40" width="60" height="30" as="geometry" />
        </mxCell>
        <mxCell id="ADxAo6VJDCDAHwZJdcY--267" value="&lt;b&gt;&lt;font style=&quot;font-size: 14px&quot;&gt;Lims App&lt;/font&gt;&lt;/b&gt;" style="text;html=1;strokeColor=none;fillColor=none;align=center;verticalAlign=middle;whiteSpace=wrap;rounded=0;" parent="ADxAo6VJDCDAHwZJdcY--264" vertex="1">
          <mxGeometry x="80" y="45" width="100" height="20" as="geometry" />
        </mxCell>
        <mxCell id="ADxAo6VJDCDAHwZJdcY--494" value="" style="shape=waypoint;sketch=0;fillStyle=solid;size=6;pointerEvents=1;points=[];fillColor=none;resizable=0;rotatable=0;perimeter=centerPerimeter;snapToPoint=1;rounded=1;shadow=0;fontSize=9;strokeColor=#9673A6;strokeWidth=1;opacity=0;" parent="ADxAo6VJDCDAHwZJdcY--264" vertex="1">
          <mxGeometry x="20" y="35" width="40" height="40" as="geometry" />
        </mxCell>
        <mxCell id="ADxAo6VJDCDAHwZJdcY--493" value="" style="endArrow=none;html=1;fontSize=9;strokeColor=#b85450;strokeWidth=1;exitX=0.47;exitY=0.567;exitDx=0;exitDy=0;exitPerimeter=0;endFill=0;fillColor=#f8cecc;entryX=0;entryY=0;entryDx=0;entryDy=0;" parent="ADxAo6VJDCDAHwZJdcY--264" source="ADxAo6VJDCDAHwZJdcY--494" target="ADxAo6VJDCDAHwZJdcY--264" edge="1">
          <mxGeometry width="50" height="50" relative="1" as="geometry">
            <mxPoint x="120" y="30" as="sourcePoint" />
            <mxPoint x="300" y="-60" as="targetPoint" />
          </mxGeometry>
        </mxCell>
        <mxCell id="ADxAo6VJDCDAHwZJdcY--260" value="bcl2fastq VM" style="swimlane;rounded=1;shadow=0;strokeColor=#666666;fillColor=#F5F5F5;gradientColor=none;startSize=30;" parent="ADxAo6VJDCDAHwZJdcY--201" vertex="1">
          <mxGeometry x="400" y="160" width="200" height="75" as="geometry">
            <mxRectangle x="400" y="160" width="70" height="30" as="alternateBounds" />
          </mxGeometry>
        </mxCell>
        <mxCell id="ADxAo6VJDCDAHwZJdcY--261" value="" style="rounded=0;whiteSpace=wrap;html=1;" parent="ADxAo6VJDCDAHwZJdcY--260" vertex="1">
          <mxGeometry y="30" width="200" height="50" as="geometry" />
        </mxCell>
        <mxCell id="ADxAo6VJDCDAHwZJdcY--268" value="TSO500" style="ellipse;whiteSpace=wrap;html=1;gradientDirection=east;fillColor=#b1ddf0;strokeColor=#10739e;" parent="ADxAo6VJDCDAHwZJdcY--260" vertex="1">
          <mxGeometry x="10" y="40" width="60" height="30" as="geometry" />
        </mxCell>
        <mxCell id="ADxAo6VJDCDAHwZJdcY--269" value="&lt;b&gt;&lt;font style=&quot;font-size: 14px&quot;&gt;&amp;nbsp;170.220.59.153&lt;/font&gt;&lt;/b&gt;" style="text;html=1;strokeColor=none;fillColor=none;align=center;verticalAlign=middle;whiteSpace=wrap;rounded=0;" parent="ADxAo6VJDCDAHwZJdcY--260" vertex="1">
          <mxGeometry x="80" y="45" width="100" height="20" as="geometry" />
        </mxCell>
        <mxCell id="ADxAo6VJDCDAHwZJdcY--497" value="" style="endArrow=none;html=1;fontSize=9;strokeColor=#9673a6;strokeWidth=1;exitX=0;exitY=0;exitDx=0;exitDy=0;entryX=1.003;entryY=0.401;entryDx=0;entryDy=0;entryPerimeter=0;fillColor=#e1d5e7;" parent="ADxAo6VJDCDAHwZJdcY--260" source="ADxAo6VJDCDAHwZJdcY--261" target="ADxAo6VJDCDAHwZJdcY--260" edge="1">
          <mxGeometry width="50" height="50" relative="1" as="geometry">
            <mxPoint x="120" y="60" as="sourcePoint" />
            <mxPoint x="170" y="10" as="targetPoint" />
          </mxGeometry>
        </mxCell>
        <mxCell id="ADxAo6VJDCDAHwZJdcY--234" value="NgsReporter VM" style="swimlane;rounded=1;shadow=0;strokeColor=#000000;fillColor=#F5F5F5;startSize=30;" parent="ADxAo6VJDCDAHwZJdcY--201" vertex="1">
          <mxGeometry x="400" y="30" width="200" height="130" as="geometry">
            <mxRectangle x="400" y="30" width="70" height="30" as="alternateBounds" />
          </mxGeometry>
        </mxCell>
        <mxCell id="ADxAo6VJDCDAHwZJdcY--235" value="" style="group;fillColor=#cdeb8b;strokeColor=#36393d;fontStyle=1" parent="ADxAo6VJDCDAHwZJdcY--234" vertex="1" connectable="0">
          <mxGeometry y="30" width="200" height="100" as="geometry" />
        </mxCell>
        <mxCell id="ADxAo6VJDCDAHwZJdcY--236" value="" style="group;fontStyle=1" parent="ADxAo6VJDCDAHwZJdcY--235" vertex="1" connectable="0">
          <mxGeometry width="200" height="50" as="geometry" />
        </mxCell>
        <mxCell id="ADxAo6VJDCDAHwZJdcY--237" value="" style="rounded=0;whiteSpace=wrap;html=1;fontStyle=1" parent="ADxAo6VJDCDAHwZJdcY--236" vertex="1">
          <mxGeometry width="200" height="50" as="geometry" />
        </mxCell>
        <mxCell id="ADxAo6VJDCDAHwZJdcY--238" value="" style="ellipse;whiteSpace=wrap;html=1;gradientDirection=east;fillColor=#cdeb8b;strokeColor=#36393d;fontStyle=1" parent="ADxAo6VJDCDAHwZJdcY--236" vertex="1">
          <mxGeometry x="10" y="10" width="60" height="30" as="geometry" />
        </mxCell>
        <mxCell id="ADxAo6VJDCDAHwZJdcY--239" value="&lt;span&gt;&lt;font style=&quot;font-size: 14px&quot;&gt;NgsReporter App&lt;/font&gt;&lt;/span&gt;" style="text;html=1;strokeColor=none;fillColor=none;align=center;verticalAlign=middle;whiteSpace=wrap;rounded=0;fontStyle=1" parent="ADxAo6VJDCDAHwZJdcY--236" vertex="1">
          <mxGeometry x="80" y="15" width="100" height="20" as="geometry" />
        </mxCell>
        <mxCell id="ADxAo6VJDCDAHwZJdcY--240" value="" style="group;fontStyle=1" parent="ADxAo6VJDCDAHwZJdcY--235" vertex="1" connectable="0">
          <mxGeometry y="50" width="200" height="50" as="geometry" />
        </mxCell>
        <mxCell id="ADxAo6VJDCDAHwZJdcY--241" value="" style="rounded=0;whiteSpace=wrap;html=1;fontStyle=1" parent="ADxAo6VJDCDAHwZJdcY--240" vertex="1">
          <mxGeometry width="200" height="50" as="geometry" />
        </mxCell>
        <mxCell id="ADxAo6VJDCDAHwZJdcY--243" value="&lt;span&gt;&lt;font style=&quot;font-size: 14px&quot;&gt;Image Processing&lt;/font&gt;&lt;/span&gt;" style="text;html=1;strokeColor=none;fillColor=none;align=center;verticalAlign=middle;whiteSpace=wrap;rounded=0;fontStyle=1" parent="ADxAo6VJDCDAHwZJdcY--240" vertex="1">
          <mxGeometry x="50" y="15" width="100" height="20" as="geometry" />
        </mxCell>
        <mxCell id="ADxAo6VJDCDAHwZJdcY--447" value="" style="endArrow=none;html=1;strokeWidth=1;entryX=0;entryY=0;entryDx=0;entryDy=0;fillColor=#e1d5e7;strokeColor=#9673a6;endFill=0;startArrow=none;" parent="ADxAo6VJDCDAHwZJdcY--201" source="ADxAo6VJDCDAHwZJdcY--449" target="ADxAo6VJDCDAHwZJdcY--231" edge="1">
          <mxGeometry width="50" height="50" relative="1" as="geometry">
            <mxPoint x="690" y="420" as="sourcePoint" />
            <mxPoint x="50" y="30" as="targetPoint" />
          </mxGeometry>
        </mxCell>
        <mxCell id="ADxAo6VJDCDAHwZJdcY--449" value="" style="shape=waypoint;sketch=0;fillStyle=solid;size=6;pointerEvents=1;points=[];fillColor=none;resizable=0;rotatable=0;perimeter=centerPerimeter;snapToPoint=1;rounded=1;shadow=0;strokeColor=#000000;opacity=0;" parent="ADxAo6VJDCDAHwZJdcY--201" vertex="1">
          <mxGeometry x="180" y="90" width="40" height="40" as="geometry" />
        </mxCell>
        <mxCell id="ADxAo6VJDCDAHwZJdcY--450" value="" style="endArrow=none;html=1;strokeWidth=1;entryDx=0;entryDy=0;fillColor=#e1d5e7;strokeColor=#9673a6;endFill=0;" parent="ADxAo6VJDCDAHwZJdcY--201" source="ADxAo6VJDCDAHwZJdcY--448" target="ADxAo6VJDCDAHwZJdcY--449" edge="1">
          <mxGeometry width="50" height="50" relative="1" as="geometry">
            <mxPoint x="-1050" y="65" as="sourcePoint" />
            <mxPoint x="-890" y="90" as="targetPoint" />
          </mxGeometry>
        </mxCell>
        <mxCell id="ADxAo6VJDCDAHwZJdcY--244" value="NAS WN63307" style="swimlane;rounded=1;shadow=0;strokeColor=#000000;fillColor=#F5F5F5;startSize=32;" parent="ADxAo6VJDCDAHwZJdcY--169" vertex="1">
          <mxGeometry x="720" y="50" width="270" height="182" as="geometry">
            <mxRectangle x="-2090" y="-350" width="70" height="30" as="alternateBounds" />
          </mxGeometry>
        </mxCell>
        <mxCell id="ADxAo6VJDCDAHwZJdcY--453" value="" style="shape=waypoint;sketch=0;fillStyle=solid;size=6;pointerEvents=1;points=[];fillColor=none;resizable=0;rotatable=0;perimeter=centerPerimeter;snapToPoint=1;rounded=1;shadow=0;strokeColor=#000000;opacity=0;" parent="ADxAo6VJDCDAHwZJdcY--244" vertex="1">
          <mxGeometry x="-20" y="90" width="40" height="40" as="geometry" />
        </mxCell>
        <mxCell id="ADxAo6VJDCDAHwZJdcY--328" value="&lt;span style=&quot;color: rgba(0 , 0 , 0 , 0) ; font-family: monospace ; font-size: 0px&quot;&gt;%3CmxGraphModel%3E%3Croot%3E%3CmxCell%20id%3D%220%22%2F%3E%3CmxCell%20id%3D%221%22%20parent%3D%220%22%2F%3E%3CmxCell%20id%3D%222%22%20value%3D%22%26lt%3Bb%26gt%3B%26lt%3Bfont%20style%3D%26quot%3Bfont-size%3A%2014px%26quot%3B%26gt%3B%2FData%2FNovaSeq%26lt%3B%2Ffont%26gt%3B%26lt%3B%2Fb%26gt%3B%22%20style%3D%22text%3Bhtml%3D1%3BstrokeColor%3Dnone%3BfillColor%3Dnone%3Balign%3Dcenter%3BverticalAlign%3Dmiddle%3BwhiteSpace%3Dwrap%3Brounded%3D0%3B%22%20vertex%3D%221%22%20parent%3D%221%22%3E%3CmxGeometry%20x%3D%22-1379.032258064516%22%20y%3D%22-705%22%20width%3D%22156.7741935483871%22%20height%3D%2220%22%20as%3D%22geometry%22%2F%3E%3C%2FmxCell%3E%3C%2Froot%3E%3C%2FmxGraphModel%3E&lt;/span&gt;" style="rounded=0;whiteSpace=wrap;html=1;" parent="ADxAo6VJDCDAHwZJdcY--244" vertex="1">
          <mxGeometry y="132" width="270" height="50" as="geometry" />
        </mxCell>
        <mxCell id="ADxAo6VJDCDAHwZJdcY--329" value="Geno4me" style="ellipse;whiteSpace=wrap;html=1;gradientDirection=east;fillColor=#bac8d3;strokeColor=#23445d;" parent="ADxAo6VJDCDAHwZJdcY--244" vertex="1">
          <mxGeometry x="8.709677419354875" y="142" width="52.25806451612903" height="30" as="geometry" />
        </mxCell>
        <mxCell id="ADxAo6VJDCDAHwZJdcY--330" value="" style="rounded=0;whiteSpace=wrap;html=1;" parent="ADxAo6VJDCDAHwZJdcY--244" vertex="1">
          <mxGeometry y="32" width="270" height="50" as="geometry" />
        </mxCell>
        <mxCell id="ADxAo6VJDCDAHwZJdcY--331" value="" style="rounded=0;whiteSpace=wrap;html=1;" parent="ADxAo6VJDCDAHwZJdcY--244" vertex="1">
          <mxGeometry y="82" width="270" height="50" as="geometry" />
        </mxCell>
        <mxCell id="ADxAo6VJDCDAHwZJdcY--332" value="&lt;b&gt;&lt;font style=&quot;font-size: 14px&quot;&gt;/Data/MiSeq&lt;/font&gt;&lt;/b&gt;" style="text;html=1;strokeColor=none;fillColor=none;align=center;verticalAlign=middle;whiteSpace=wrap;rounded=0;" parent="ADxAo6VJDCDAHwZJdcY--244" vertex="1">
          <mxGeometry x="60.97" y="47" width="119.03" height="20" as="geometry" />
        </mxCell>
        <mxCell id="ADxAo6VJDCDAHwZJdcY--333" value="&lt;b&gt;&lt;font style=&quot;font-size: 14px&quot;&gt;/Data/NovaSeq&lt;/font&gt;&lt;/b&gt;" style="text;html=1;strokeColor=none;fillColor=none;align=center;verticalAlign=middle;whiteSpace=wrap;rounded=0;" parent="ADxAo6VJDCDAHwZJdcY--244" vertex="1">
          <mxGeometry x="60.97" y="97" width="139.03" height="20" as="geometry" />
        </mxCell>
        <mxCell id="ADxAo6VJDCDAHwZJdcY--334" value="Archer" style="ellipse;whiteSpace=wrap;html=1;gradientDirection=east;fillColor=#fff2cc;strokeColor=#d6b656;" parent="ADxAo6VJDCDAHwZJdcY--244" vertex="1">
          <mxGeometry x="8.709677419354875" y="42" width="52.25806451612903" height="30" as="geometry" />
        </mxCell>
        <mxCell id="ADxAo6VJDCDAHwZJdcY--335" value="TSO500" style="ellipse;whiteSpace=wrap;html=1;gradientDirection=east;fillColor=#b1ddf0;strokeColor=#10739e;" parent="ADxAo6VJDCDAHwZJdcY--244" vertex="1">
          <mxGeometry x="8.709677419354875" y="92" width="52.25806451612903" height="30" as="geometry" />
        </mxCell>
        <mxCell id="ADxAo6VJDCDAHwZJdcY--336" value="&lt;b&gt;&lt;font style=&quot;font-size: 14px&quot;&gt;/Data/NovaSeq&lt;/font&gt;&lt;/b&gt;" style="text;html=1;strokeColor=none;fillColor=none;align=center;verticalAlign=middle;whiteSpace=wrap;rounded=0;" parent="ADxAo6VJDCDAHwZJdcY--244" vertex="1">
          <mxGeometry x="60.97" y="147" width="139.03" height="20" as="geometry" />
        </mxCell>
        <mxCell id="ADxAo6VJDCDAHwZJdcY--455" value="" style="endArrow=classic;html=1;strokeWidth=1;entryX=0;entryY=0.5;entryDx=0;entryDy=0;fillColor=#e1d5e7;strokeColor=#9673a6;" parent="ADxAo6VJDCDAHwZJdcY--169" source="ADxAo6VJDCDAHwZJdcY--454" target="ADxAo6VJDCDAHwZJdcY--328" edge="1">
          <mxGeometry width="50" height="50" relative="1" as="geometry">
            <mxPoint x="690" y="400" as="sourcePoint" />
            <mxPoint x="740" y="350" as="targetPoint" />
          </mxGeometry>
        </mxCell>
        <mxCell id="ADxAo6VJDCDAHwZJdcY--464" value="" style="shape=waypoint;sketch=0;fillStyle=solid;size=6;pointerEvents=1;points=[];fillColor=none;resizable=0;rotatable=0;perimeter=centerPerimeter;snapToPoint=1;rounded=1;shadow=0;fontSize=9;strokeColor=#000000;strokeWidth=1;opacity=0;spacingBottom=0;" parent="ADxAo6VJDCDAHwZJdcY--169" vertex="1">
          <mxGeometry x="1080" y="162" width="40" height="40" as="geometry" />
        </mxCell>
        <mxCell id="ADxAo6VJDCDAHwZJdcY--463" value="" style="endArrow=classic;html=1;fontSize=9;strokeWidth=1;entryX=1;entryY=0.5;entryDx=0;entryDy=0;exitX=0.434;exitY=0.494;exitDx=0;exitDy=0;exitPerimeter=0;gradientColor=#7ea6e0;fillColor=#dae8fc;strokeColor=#6c8ebf;" parent="ADxAo6VJDCDAHwZJdcY--169" source="ADxAo6VJDCDAHwZJdcY--464" target="ADxAo6VJDCDAHwZJdcY--331" edge="1">
          <mxGeometry width="50" height="50" relative="1" as="geometry">
            <mxPoint x="1320" y="157" as="sourcePoint" />
            <mxPoint x="1050" y="230" as="targetPoint" />
          </mxGeometry>
        </mxCell>
        <mxCell id="ADxAo6VJDCDAHwZJdcY--465" value="" style="endArrow=classic;html=1;fontSize=9;strokeWidth=1;entryX=1;entryY=0.5;entryDx=0;entryDy=0;exitX=0.518;exitY=0.587;exitDx=0;exitDy=0;exitPerimeter=0;gradientColor=#7ea6e0;fillColor=#dae8fc;strokeColor=#6c8ebf;" parent="ADxAo6VJDCDAHwZJdcY--169" source="ADxAo6VJDCDAHwZJdcY--464" target="ADxAo6VJDCDAHwZJdcY--328" edge="1">
          <mxGeometry width="50" height="50" relative="1" as="geometry">
            <mxPoint x="1030" y="192" as="sourcePoint" />
            <mxPoint x="940" y="167" as="targetPoint" />
          </mxGeometry>
        </mxCell>
        <mxCell id="ADxAo6VJDCDAHwZJdcY--339" value="Isilon" style="swimlane;rounded=1;shadow=0;strokeColor=#000000;fillColor=#F5F5F5;startSize=32;" parent="ADxAo6VJDCDAHwZJdcY--169" vertex="1">
          <mxGeometry x="720" y="232" width="270" height="82" as="geometry">
            <mxRectangle x="-2090" y="-350" width="70" height="30" as="alternateBounds" />
          </mxGeometry>
        </mxCell>
        <mxCell id="ADxAo6VJDCDAHwZJdcY--350" value="" style="group" parent="ADxAo6VJDCDAHwZJdcY--339" vertex="1" connectable="0">
          <mxGeometry y="32" width="270" height="50" as="geometry" />
        </mxCell>
        <mxCell id="ADxAo6VJDCDAHwZJdcY--343" value="" style="rounded=0;whiteSpace=wrap;html=1;" parent="ADxAo6VJDCDAHwZJdcY--350" vertex="1">
          <mxGeometry width="270" height="50" as="geometry" />
        </mxCell>
        <mxCell id="ADxAo6VJDCDAHwZJdcY--345" value="&lt;b&gt;&lt;font style=&quot;font-size: 14px&quot;&gt;/reviewer_storage_bucket&lt;/font&gt;&lt;/b&gt;" style="text;html=1;strokeColor=none;fillColor=none;align=center;verticalAlign=middle;whiteSpace=wrap;rounded=0;" parent="ADxAo6VJDCDAHwZJdcY--350" vertex="1">
          <mxGeometry x="89.9977419354839" y="15" width="156.7741935483871" height="20" as="geometry" />
        </mxCell>
        <mxCell id="ADxAo6VJDCDAHwZJdcY--347" value="Archer" style="ellipse;whiteSpace=wrap;html=1;gradientDirection=east;fillColor=#fff2cc;strokeColor=#d6b656;" parent="ADxAo6VJDCDAHwZJdcY--350" vertex="1">
          <mxGeometry x="8.709677419354875" y="10" width="52.25806451612903" height="30" as="geometry" />
        </mxCell>
        <mxCell id="ADxAo6VJDCDAHwZJdcY--475" value="" style="endArrow=none;html=1;fontSize=9;strokeWidth=1;exitX=0;exitY=0.75;exitDx=0;exitDy=0;entryX=1;entryY=0;entryDx=0;entryDy=0;fillColor=#e1d5e7;strokeColor=#9673a6;endFill=0;" parent="ADxAo6VJDCDAHwZJdcY--169" source="ADxAo6VJDCDAHwZJdcY--330" target="ADxAo6VJDCDAHwZJdcY--261" edge="1">
          <mxGeometry width="50" height="50" relative="1" as="geometry">
            <mxPoint x="540" y="500" as="sourcePoint" />
            <mxPoint x="590" y="360" as="targetPoint" />
          </mxGeometry>
        </mxCell>
        <mxCell id="ADxAo6VJDCDAHwZJdcY--478" value="" style="endArrow=classic;html=1;fontSize=9;strokeWidth=1;exitX=1;exitY=0.5;exitDx=0;exitDy=0;entryX=0;entryY=0.5;entryDx=0;entryDy=0;fillColor=#e1d5e7;strokeColor=#9673a6;" parent="ADxAo6VJDCDAHwZJdcY--169" source="ADxAo6VJDCDAHwZJdcY--205" target="ADxAo6VJDCDAHwZJdcY--343" edge="1">
          <mxGeometry width="50" height="50" relative="1" as="geometry">
            <mxPoint x="880" y="450" as="sourcePoint" />
            <mxPoint x="950" y="410" as="targetPoint" />
            <Array as="points">
              <mxPoint x="400" y="289" />
            </Array>
          </mxGeometry>
        </mxCell>
        <mxCell id="ADxAo6VJDCDAHwZJdcY--454" value="" style="shape=waypoint;sketch=0;fillStyle=solid;size=6;pointerEvents=1;points=[];fillColor=none;resizable=0;rotatable=0;perimeter=centerPerimeter;snapToPoint=1;rounded=1;shadow=0;strokeColor=#000000;opacity=0;" parent="ADxAo6VJDCDAHwZJdcY--169" vertex="1">
          <mxGeometry x="655" y="140" width="40" height="40" as="geometry" />
        </mxCell>
        <mxCell id="ADxAo6VJDCDAHwZJdcY--489" value="" style="endArrow=none;html=1;strokeWidth=1;fillColor=#e1d5e7;strokeColor=#9673a6;exitX=1;exitY=0.5;exitDx=0;exitDy=0;entryDx=0;entryDy=0;entryPerimeter=0;startArrow=none;" parent="ADxAo6VJDCDAHwZJdcY--169" source="ADxAo6VJDCDAHwZJdcY--491" target="ADxAo6VJDCDAHwZJdcY--454" edge="1">
          <mxGeometry width="50" height="50" relative="1" as="geometry">
            <mxPoint x="-729.9999999999995" as="sourcePoint" />
            <mxPoint x="-209.99999999999955" as="targetPoint" />
          </mxGeometry>
        </mxCell>
        <mxCell id="ADxAo6VJDCDAHwZJdcY--451" value="" style="endArrow=classic;html=1;strokeWidth=1;fillColor=#e1d5e7;strokeColor=#9673a6;entryX=0;entryY=0.5;entryDx=0;entryDy=0;startArrow=none;" parent="ADxAo6VJDCDAHwZJdcY--169" source="ADxAo6VJDCDAHwZJdcY--454" target="ADxAo6VJDCDAHwZJdcY--331" edge="1">
          <mxGeometry width="50" height="50" relative="1" as="geometry">
            <mxPoint x="610.0000000000005" y="204.92000000000002" as="sourcePoint" />
            <mxPoint x="655.0000000000005" y="204.92000000000002" as="targetPoint" />
          </mxGeometry>
        </mxCell>
        <mxCell id="ADxAo6VJDCDAHwZJdcY--456" value="" style="endArrow=classic;html=1;strokeWidth=1;entryX=0;entryY=0.5;entryDx=0;entryDy=0;fillColor=#e1d5e7;strokeColor=#9673a6;exitX=0.471;exitY=0.554;exitDx=0;exitDy=0;exitPerimeter=0;" parent="ADxAo6VJDCDAHwZJdcY--169" source="ADxAo6VJDCDAHwZJdcY--454" target="ADxAo6VJDCDAHwZJdcY--330" edge="1">
          <mxGeometry width="50" height="50" relative="1" as="geometry">
            <mxPoint x="510" y="250" as="sourcePoint" />
            <mxPoint x="650" y="440" as="targetPoint" />
          </mxGeometry>
        </mxCell>
        <mxCell id="ADxAo6VJDCDAHwZJdcY--491" value="Sample&lt;br&gt;Sheets" style="text;html=1;strokeColor=#9673A6;fillColor=none;align=center;verticalAlign=middle;whiteSpace=wrap;rounded=0;shadow=0;fontSize=9;" parent="ADxAo6VJDCDAHwZJdcY--169" vertex="1">
          <mxGeometry x="610" y="150" width="40" height="20" as="geometry" />
        </mxCell>
        <mxCell id="ADxAo6VJDCDAHwZJdcY--492" value="" style="endArrow=none;html=1;strokeWidth=1;fillColor=#e1d5e7;strokeColor=#9673a6;exitX=0.515;exitY=0.56;exitDx=0;exitDy=0;exitPerimeter=0;entryDx=0;entryDy=0;entryPerimeter=0;" parent="ADxAo6VJDCDAHwZJdcY--169" source="ADxAo6VJDCDAHwZJdcY--449" target="ADxAo6VJDCDAHwZJdcY--491" edge="1">
          <mxGeometry width="50" height="50" relative="1" as="geometry">
            <mxPoint x="-730" as="sourcePoint" />
            <mxPoint x="-255" as="targetPoint" />
          </mxGeometry>
        </mxCell>
        <mxCell id="ADxAo6VJDCDAHwZJdcY--499" value="" style="endArrow=classic;html=1;fontSize=23;strokeColor=#9673a6;strokeWidth=1;exitX=0;exitY=0.75;exitDx=0;exitDy=0;entryX=1;entryY=0;entryDx=0;entryDy=0;fillColor=#e1d5e7;" parent="ADxAo6VJDCDAHwZJdcY--169" source="ADxAo6VJDCDAHwZJdcY--331" target="ADxAo6VJDCDAHwZJdcY--268" edge="1">
          <mxGeometry width="50" height="50" relative="1" as="geometry">
            <mxPoint x="1030" y="550" as="sourcePoint" />
            <mxPoint x="1080" y="500" as="targetPoint" />
            <Array as="points">
              <mxPoint x="600" y="254" />
            </Array>
          </mxGeometry>
        </mxCell>
        <mxCell id="ADxAo6VJDCDAHwZJdcY--351" value="POP3" style="swimlane;rounded=1;shadow=0;strokeColor=#666666;fillColor=#F5F5F5;gradientColor=none;startSize=50;swimlaneFillColor=default;" parent="ADxAo6VJDCDAHwZJdcY--487" vertex="1">
          <mxGeometry x="1470" y="45" width="400" height="470" as="geometry">
            <mxRectangle x="430" y="-106" width="130" height="23" as="alternateBounds" />
          </mxGeometry>
        </mxCell>
        <mxCell id="ADxAo6VJDCDAHwZJdcY--381" value="MiSeq" style="swimlane;rounded=1;shadow=0;strokeColor=#b85450;fillColor=#f8cecc;gradientColor=#ea6b66;startSize=30;" parent="ADxAo6VJDCDAHwZJdcY--351" vertex="1">
          <mxGeometry y="50" width="200" height="80" as="geometry">
            <mxRectangle y="50" width="70" height="30" as="alternateBounds" />
          </mxGeometry>
        </mxCell>
        <mxCell id="ADxAo6VJDCDAHwZJdcY--382" value="" style="rounded=0;whiteSpace=wrap;html=1;" parent="ADxAo6VJDCDAHwZJdcY--381" vertex="1">
          <mxGeometry y="30" width="200" height="50" as="geometry" />
        </mxCell>
        <mxCell id="ADxAo6VJDCDAHwZJdcY--384" value="&lt;span style=&quot;font-size: 14px&quot;&gt;&lt;b&gt;MiSeq&lt;/b&gt;&lt;/span&gt;" style="text;html=1;strokeColor=none;fillColor=none;align=center;verticalAlign=middle;whiteSpace=wrap;rounded=0;" parent="ADxAo6VJDCDAHwZJdcY--381" vertex="1">
          <mxGeometry x="50" y="45" width="100" height="20" as="geometry" />
        </mxCell>
        <mxCell id="ADxAo6VJDCDAHwZJdcY--466" value="" style="shape=waypoint;sketch=0;fillStyle=solid;size=6;pointerEvents=1;points=[];fillColor=none;resizable=0;rotatable=0;perimeter=centerPerimeter;snapToPoint=1;rounded=1;shadow=0;fontSize=9;strokeColor=#000000;strokeWidth=1;opacity=0;" parent="ADxAo6VJDCDAHwZJdcY--381" vertex="1">
          <mxGeometry x="-20" y="-20" width="40" height="40" as="geometry" />
        </mxCell>
        <mxCell id="ADxAo6VJDCDAHwZJdcY--436" value="Datapod" style="swimlane;rounded=1;shadow=0;strokeColor=#000000;fillColor=#F5F5F5;startSize=30;" parent="ADxAo6VJDCDAHwZJdcY--351" vertex="1">
          <mxGeometry y="260" width="200" height="130" as="geometry">
            <mxRectangle x="400" y="30" width="70" height="30" as="alternateBounds" />
          </mxGeometry>
        </mxCell>
        <mxCell id="ADxAo6VJDCDAHwZJdcY--437" value="" style="group;fillColor=#cdeb8b;strokeColor=#36393d;fontStyle=1" parent="ADxAo6VJDCDAHwZJdcY--436" vertex="1" connectable="0">
          <mxGeometry y="30" width="200" height="100" as="geometry" />
        </mxCell>
        <mxCell id="ADxAo6VJDCDAHwZJdcY--438" value="" style="group;fontStyle=1" parent="ADxAo6VJDCDAHwZJdcY--437" vertex="1" connectable="0">
          <mxGeometry width="200" height="50" as="geometry" />
        </mxCell>
        <mxCell id="ADxAo6VJDCDAHwZJdcY--439" value="" style="rounded=0;whiteSpace=wrap;html=1;fontStyle=1" parent="ADxAo6VJDCDAHwZJdcY--438" vertex="1">
          <mxGeometry width="200" height="50" as="geometry" />
        </mxCell>
        <mxCell id="ADxAo6VJDCDAHwZJdcY--440" value="&lt;span&gt;&lt;font style=&quot;font-size: 14px&quot;&gt;HAProxy&lt;/font&gt;&lt;/span&gt;" style="text;html=1;strokeColor=none;fillColor=none;align=center;verticalAlign=middle;whiteSpace=wrap;rounded=0;fontStyle=1" parent="ADxAo6VJDCDAHwZJdcY--438" vertex="1">
          <mxGeometry x="50" y="15" width="100" height="20" as="geometry" />
        </mxCell>
        <mxCell id="ADxAo6VJDCDAHwZJdcY--441" value="" style="group;fontStyle=1" parent="ADxAo6VJDCDAHwZJdcY--437" vertex="1" connectable="0">
          <mxGeometry y="50" width="200" height="50" as="geometry" />
        </mxCell>
        <mxCell id="ADxAo6VJDCDAHwZJdcY--442" value="" style="rounded=0;whiteSpace=wrap;html=1;fontStyle=1" parent="ADxAo6VJDCDAHwZJdcY--441" vertex="1">
          <mxGeometry width="200" height="50" as="geometry" />
        </mxCell>
        <mxCell id="ADxAo6VJDCDAHwZJdcY--443" value="&lt;span&gt;&lt;font style=&quot;font-size: 14px&quot;&gt;Storage&lt;/font&gt;&lt;/span&gt;" style="text;html=1;strokeColor=none;fillColor=none;align=center;verticalAlign=middle;whiteSpace=wrap;rounded=0;fontStyle=1" parent="ADxAo6VJDCDAHwZJdcY--441" vertex="1">
          <mxGeometry x="50" y="15" width="100" height="20" as="geometry" />
        </mxCell>
        <mxCell id="ADxAo6VJDCDAHwZJdcY--471" value="" style="shape=waypoint;sketch=0;fillStyle=solid;size=6;pointerEvents=1;points=[];fillColor=none;resizable=0;rotatable=0;perimeter=centerPerimeter;snapToPoint=1;rounded=1;shadow=0;fontSize=9;strokeColor=#000000;strokeWidth=1;opacity=0;" parent="ADxAo6VJDCDAHwZJdcY--441" vertex="1">
          <mxGeometry x="10" y="5" width="40" height="40" as="geometry" />
        </mxCell>
        <mxCell id="ADxAo6VJDCDAHwZJdcY--410" value="Hammamatsu" style="swimlane;rounded=1;shadow=0;strokeColor=#000000;fillColor=#F5F5F5;startSize=30;" parent="ADxAo6VJDCDAHwZJdcY--351" vertex="1">
          <mxGeometry x="200" y="50" width="200" height="220" as="geometry">
            <mxRectangle x="-2670" y="-400" width="70" height="30" as="alternateBounds" />
          </mxGeometry>
        </mxCell>
        <mxCell id="ADxAo6VJDCDAHwZJdcY--428" value="" style="group" parent="ADxAo6VJDCDAHwZJdcY--410" vertex="1" connectable="0">
          <mxGeometry y="30" width="200" height="200" as="geometry" />
        </mxCell>
        <mxCell id="ADxAo6VJDCDAHwZJdcY--411" value="" style="group;fillColor=#cdeb8b;strokeColor=#36393d;fontStyle=1" parent="ADxAo6VJDCDAHwZJdcY--428" vertex="1" connectable="0">
          <mxGeometry width="200" height="100" as="geometry" />
        </mxCell>
        <mxCell id="ADxAo6VJDCDAHwZJdcY--412" value="" style="group;fontStyle=1" parent="ADxAo6VJDCDAHwZJdcY--411" vertex="1" connectable="0">
          <mxGeometry width="200" height="50" as="geometry" />
        </mxCell>
        <mxCell id="ADxAo6VJDCDAHwZJdcY--413" value="" style="rounded=0;whiteSpace=wrap;html=1;fontStyle=1" parent="ADxAo6VJDCDAHwZJdcY--412" vertex="1">
          <mxGeometry width="200" height="50" as="geometry" />
        </mxCell>
        <mxCell id="ADxAo6VJDCDAHwZJdcY--414" value="&lt;span&gt;&lt;font style=&quot;font-size: 14px&quot;&gt;Scanner 1&lt;/font&gt;&lt;/span&gt;" style="text;html=1;strokeColor=none;fillColor=none;align=center;verticalAlign=middle;whiteSpace=wrap;rounded=0;fontStyle=1" parent="ADxAo6VJDCDAHwZJdcY--412" vertex="1">
          <mxGeometry x="50" y="15" width="100" height="20" as="geometry" />
        </mxCell>
        <mxCell id="ADxAo6VJDCDAHwZJdcY--415" value="" style="group;fontStyle=1" parent="ADxAo6VJDCDAHwZJdcY--411" vertex="1" connectable="0">
          <mxGeometry y="50" width="200" height="50" as="geometry" />
        </mxCell>
        <mxCell id="ADxAo6VJDCDAHwZJdcY--416" value="" style="rounded=0;whiteSpace=wrap;html=1;fontStyle=1" parent="ADxAo6VJDCDAHwZJdcY--415" vertex="1">
          <mxGeometry width="200" height="50" as="geometry" />
        </mxCell>
        <mxCell id="ADxAo6VJDCDAHwZJdcY--417" value="&lt;span&gt;&lt;font style=&quot;font-size: 14px&quot;&gt;Scanner 2&lt;/font&gt;&lt;/span&gt;" style="text;html=1;strokeColor=none;fillColor=none;align=center;verticalAlign=middle;whiteSpace=wrap;rounded=0;fontStyle=1" parent="ADxAo6VJDCDAHwZJdcY--415" vertex="1">
          <mxGeometry x="50" y="15" width="100" height="20" as="geometry" />
        </mxCell>
        <mxCell id="ADxAo6VJDCDAHwZJdcY--421" value="" style="group;fillColor=#cdeb8b;strokeColor=#36393d;fontStyle=1" parent="ADxAo6VJDCDAHwZJdcY--428" vertex="1" connectable="0">
          <mxGeometry y="100" width="200" height="100" as="geometry" />
        </mxCell>
        <mxCell id="ADxAo6VJDCDAHwZJdcY--422" value="" style="group;fontStyle=1" parent="ADxAo6VJDCDAHwZJdcY--421" vertex="1" connectable="0">
          <mxGeometry width="200" height="50" as="geometry" />
        </mxCell>
        <mxCell id="ADxAo6VJDCDAHwZJdcY--423" value="" style="rounded=0;whiteSpace=wrap;html=1;fontStyle=1" parent="ADxAo6VJDCDAHwZJdcY--422" vertex="1">
          <mxGeometry width="200" height="50" as="geometry" />
        </mxCell>
        <mxCell id="ADxAo6VJDCDAHwZJdcY--424" value="&lt;span&gt;&lt;font style=&quot;font-size: 14px&quot;&gt;Scanner 3&lt;/font&gt;&lt;/span&gt;" style="text;html=1;strokeColor=none;fillColor=none;align=center;verticalAlign=middle;whiteSpace=wrap;rounded=0;fontStyle=1" parent="ADxAo6VJDCDAHwZJdcY--422" vertex="1">
          <mxGeometry x="50" y="15" width="100" height="20" as="geometry" />
        </mxCell>
        <mxCell id="ADxAo6VJDCDAHwZJdcY--425" value="" style="group;fontStyle=1" parent="ADxAo6VJDCDAHwZJdcY--421" vertex="1" connectable="0">
          <mxGeometry y="50" width="200" height="50" as="geometry" />
        </mxCell>
        <mxCell id="ADxAo6VJDCDAHwZJdcY--426" value="" style="rounded=0;whiteSpace=wrap;html=1;fontStyle=1" parent="ADxAo6VJDCDAHwZJdcY--425" vertex="1">
          <mxGeometry width="200" height="50" as="geometry" />
        </mxCell>
        <mxCell id="ADxAo6VJDCDAHwZJdcY--427" value="&lt;span&gt;&lt;font style=&quot;font-size: 14px&quot;&gt;Scanner 4&lt;/font&gt;&lt;/span&gt;" style="text;html=1;strokeColor=none;fillColor=none;align=center;verticalAlign=middle;whiteSpace=wrap;rounded=0;fontStyle=1" parent="ADxAo6VJDCDAHwZJdcY--425" vertex="1">
          <mxGeometry x="50" y="15" width="100" height="20" as="geometry" />
        </mxCell>
        <mxCell id="ADxAo6VJDCDAHwZJdcY--429" value="Philips" style="swimlane;rounded=1;shadow=0;strokeColor=#000000;fillColor=#F5F5F5;gradientColor=none;startSize=30;" parent="ADxAo6VJDCDAHwZJdcY--351" vertex="1">
          <mxGeometry x="200" y="280" width="200" height="80" as="geometry">
            <mxRectangle y="50" width="70" height="30" as="alternateBounds" />
          </mxGeometry>
        </mxCell>
        <mxCell id="ADxAo6VJDCDAHwZJdcY--430" value="" style="rounded=0;whiteSpace=wrap;html=1;" parent="ADxAo6VJDCDAHwZJdcY--429" vertex="1">
          <mxGeometry y="30" width="200" height="50" as="geometry" />
        </mxCell>
        <mxCell id="ADxAo6VJDCDAHwZJdcY--431" value="&lt;span style=&quot;font-size: 14px&quot;&gt;&lt;b&gt;Scanner 1&lt;/b&gt;&lt;/span&gt;" style="text;html=1;strokeColor=none;fillColor=none;align=center;verticalAlign=middle;whiteSpace=wrap;rounded=0;" parent="ADxAo6VJDCDAHwZJdcY--429" vertex="1">
          <mxGeometry x="50" y="45" width="100" height="20" as="geometry" />
        </mxCell>
        <mxCell id="ADxAo6VJDCDAHwZJdcY--385" value="NovaSeqs" style="swimlane;rounded=1;shadow=0;strokeColor=#6c8ebf;fillColor=#dae8fc;startSize=30;gradientColor=#7ea6e0;" parent="ADxAo6VJDCDAHwZJdcY--351" vertex="1">
          <mxGeometry y="130" width="200" height="130" as="geometry">
            <mxRectangle x="200" y="50" width="70" height="30" as="alternateBounds" />
          </mxGeometry>
        </mxCell>
        <mxCell id="ADxAo6VJDCDAHwZJdcY--386" value="" style="group;fillColor=#cdeb8b;strokeColor=#36393d;fontStyle=1" parent="ADxAo6VJDCDAHwZJdcY--385" vertex="1" connectable="0">
          <mxGeometry y="30" width="200" height="100" as="geometry" />
        </mxCell>
        <mxCell id="ADxAo6VJDCDAHwZJdcY--387" value="" style="group;fontStyle=1" parent="ADxAo6VJDCDAHwZJdcY--386" vertex="1" connectable="0">
          <mxGeometry width="200" height="70" as="geometry" />
        </mxCell>
        <mxCell id="ADxAo6VJDCDAHwZJdcY--388" value="" style="rounded=0;whiteSpace=wrap;html=1;fontStyle=1" parent="ADxAo6VJDCDAHwZJdcY--387" vertex="1">
          <mxGeometry width="200" height="50" as="geometry" />
        </mxCell>
        <mxCell id="ADxAo6VJDCDAHwZJdcY--390" value="&lt;span&gt;&lt;font style=&quot;font-size: 14px&quot;&gt;NovaSeq 1&lt;/font&gt;&lt;/span&gt;" style="text;html=1;strokeColor=none;fillColor=none;align=center;verticalAlign=middle;whiteSpace=wrap;rounded=0;fontStyle=1" parent="ADxAo6VJDCDAHwZJdcY--387" vertex="1">
          <mxGeometry x="50" y="15" width="100" height="20" as="geometry" />
        </mxCell>
        <mxCell id="ADxAo6VJDCDAHwZJdcY--461" value="" style="shape=waypoint;sketch=0;fillStyle=solid;size=6;pointerEvents=1;points=[];fillColor=none;resizable=0;rotatable=0;perimeter=centerPerimeter;snapToPoint=1;rounded=1;shadow=0;fontSize=9;strokeColor=#000000;strokeWidth=1;opacity=0;" parent="ADxAo6VJDCDAHwZJdcY--387" vertex="1">
          <mxGeometry x="-20" y="30" width="40" height="40" as="geometry" />
        </mxCell>
        <mxCell id="ADxAo6VJDCDAHwZJdcY--391" value="" style="group;fontStyle=1" parent="ADxAo6VJDCDAHwZJdcY--386" vertex="1" connectable="0">
          <mxGeometry y="50" width="200" height="50" as="geometry" />
        </mxCell>
        <mxCell id="ADxAo6VJDCDAHwZJdcY--392" value="" style="rounded=0;whiteSpace=wrap;html=1;fontStyle=1" parent="ADxAo6VJDCDAHwZJdcY--391" vertex="1">
          <mxGeometry width="200" height="50" as="geometry" />
        </mxCell>
        <mxCell id="ADxAo6VJDCDAHwZJdcY--393" value="&lt;span&gt;&lt;font style=&quot;font-size: 14px&quot;&gt;NovaSeq 2&lt;/font&gt;&lt;/span&gt;" style="text;html=1;strokeColor=none;fillColor=none;align=center;verticalAlign=middle;whiteSpace=wrap;rounded=0;fontStyle=1" parent="ADxAo6VJDCDAHwZJdcY--391" vertex="1">
          <mxGeometry x="50" y="15" width="100" height="20" as="geometry" />
        </mxCell>
        <mxCell id="ADxAo6VJDCDAHwZJdcY--418" value="Dragen" style="swimlane;rounded=1;shadow=0;strokeColor=#000000;fillColor=#F5F5F5;gradientColor=none;startSize=30;" parent="ADxAo6VJDCDAHwZJdcY--351" vertex="1">
          <mxGeometry y="390" width="200" height="80" as="geometry">
            <mxRectangle y="50" width="70" height="30" as="alternateBounds" />
          </mxGeometry>
        </mxCell>
        <mxCell id="ADxAo6VJDCDAHwZJdcY--419" value="" style="rounded=0;whiteSpace=wrap;html=1;" parent="ADxAo6VJDCDAHwZJdcY--418" vertex="1">
          <mxGeometry y="30" width="200" height="50" as="geometry" />
        </mxCell>
        <mxCell id="ADxAo6VJDCDAHwZJdcY--420" value="&lt;span style=&quot;font-size: 14px&quot;&gt;&lt;b&gt;Dragen&lt;/b&gt;&lt;/span&gt;" style="text;html=1;strokeColor=none;fillColor=none;align=center;verticalAlign=middle;whiteSpace=wrap;rounded=0;" parent="ADxAo6VJDCDAHwZJdcY--418" vertex="1">
          <mxGeometry x="50" y="45" width="100" height="20" as="geometry" />
        </mxCell>
        <mxCell id="ADxAo6VJDCDAHwZJdcY--469" value="" style="shape=waypoint;sketch=0;fillStyle=solid;size=6;pointerEvents=1;points=[];fillColor=none;resizable=0;rotatable=0;perimeter=centerPerimeter;snapToPoint=1;rounded=1;shadow=0;fontSize=9;strokeColor=#000000;strokeWidth=1;opacity=0;" parent="ADxAo6VJDCDAHwZJdcY--418" vertex="1">
          <mxGeometry x="10" y="37" width="40" height="40" as="geometry" />
        </mxCell>
        <mxCell id="ADxAo6VJDCDAHwZJdcY--470" value="" style="endArrow=classic;html=1;fontSize=9;strokeWidth=1;fillColor=#bac8d3;strokeColor=#23445d;" parent="ADxAo6VJDCDAHwZJdcY--351" source="ADxAo6VJDCDAHwZJdcY--469" target="ADxAo6VJDCDAHwZJdcY--471" edge="1">
          <mxGeometry width="50" height="50" relative="1" as="geometry">
            <mxPoint x="520" y="470" as="sourcePoint" />
            <mxPoint x="570" y="420" as="targetPoint" />
          </mxGeometry>
        </mxCell>
        <mxCell id="ADxAo6VJDCDAHwZJdcY--467" value="" style="endArrow=classic;html=1;fontSize=9;strokeWidth=1;exitX=0.581;exitY=0.571;exitDx=0;exitDy=0;exitPerimeter=0;entryX=1;entryY=0.5;entryDx=0;entryDy=0;gradientColor=#ea6b66;fillColor=#f8cecc;strokeColor=#b85450;" parent="ADxAo6VJDCDAHwZJdcY--487" source="ADxAo6VJDCDAHwZJdcY--466" target="ADxAo6VJDCDAHwZJdcY--330" edge="1">
          <mxGeometry width="50" height="50" relative="1" as="geometry">
            <mxPoint x="1520" y="350" as="sourcePoint" />
            <mxPoint x="1570" y="300" as="targetPoint" />
          </mxGeometry>
        </mxCell>
        <mxCell id="ADxAo6VJDCDAHwZJdcY--462" value="" style="endArrow=none;html=1;fontSize=9;strokeWidth=1;gradientColor=#7ea6e0;fillColor=#dae8fc;strokeColor=#6c8ebf;entryX=0.467;entryY=0.555;entryDx=0;entryDy=0;entryPerimeter=0;endFill=0;" parent="ADxAo6VJDCDAHwZJdcY--487" source="ADxAo6VJDCDAHwZJdcY--461" target="ADxAo6VJDCDAHwZJdcY--464" edge="1">
          <mxGeometry width="50" height="50" relative="1" as="geometry">
            <mxPoint x="1540" y="330" as="sourcePoint" />
            <mxPoint x="1570" y="260" as="targetPoint" />
          </mxGeometry>
        </mxCell>
        <mxCell id="ADxAo6VJDCDAHwZJdcY--468" value="" style="endArrow=classic;html=1;fontSize=9;strokeWidth=1;exitX=1;exitY=0.75;exitDx=0;exitDy=0;entryX=0.413;entryY=0.52;entryDx=0;entryDy=0;fillColor=#bac8d3;strokeColor=#23445d;entryPerimeter=0;" parent="ADxAo6VJDCDAHwZJdcY--487" source="ADxAo6VJDCDAHwZJdcY--328" target="ADxAo6VJDCDAHwZJdcY--469" edge="1">
          <mxGeometry width="50" height="50" relative="1" as="geometry">
            <mxPoint x="1450" y="570" as="sourcePoint" />
            <mxPoint x="1500" y="520" as="targetPoint" />
          </mxGeometry>
        </mxCell>
        <mxCell id="ADxAo6VJDCDAHwZJdcY--445" value="" style="endArrow=none;startArrow=none;html=1;strokeWidth=1;entryX=0.5;entryY=1;entryDx=0;entryDy=0;exitX=0.5;exitY=0.5;exitDx=0;exitDy=0;exitPerimeter=0;endFill=0;startFill=0;fillColor=#ffe6cc;strokeColor=#d79b00;" parent="1" source="ADxAo6VJDCDAHwZJdcY--458" target="WrQY5icMR6syhaIgD9Ea-105" edge="1">
          <mxGeometry width="50" height="50" relative="1" as="geometry">
            <mxPoint x="-600" y="-270" as="sourcePoint" />
            <mxPoint x="-550" y="-320" as="targetPoint" />
          </mxGeometry>
        </mxCell>
        <mxCell id="ADxAo6VJDCDAHwZJdcY--479" value="" style="endArrow=classic;html=1;fontSize=9;strokeWidth=1;exitX=1;exitY=0.5;exitDx=0;exitDy=0;entryX=0.5;entryY=1;entryDx=0;entryDy=0;fillColor=#e1d5e7;strokeColor=#9673a6;" parent="1" source="ADxAo6VJDCDAHwZJdcY--343" target="WrQY5icMR6syhaIgD9Ea-103" edge="1">
          <mxGeometry width="50" height="50" relative="1" as="geometry">
            <mxPoint x="60" y="370" as="sourcePoint" />
            <mxPoint x="20" y="-520" as="targetPoint" />
          </mxGeometry>
        </mxCell>
        <mxCell id="yWk265zMaQrSM_9iUtJS-1" value="Azure" style="swimlane;rounded=1;shadow=0;fontSize=23;strokeColor=#000000;strokeWidth=1;fillColor=#F5F5F5;gradientColor=none;swimlaneFillColor=default;startSize=50;" parent="1" vertex="1">
          <mxGeometry x="-1250" y="-990" width="1050" height="570" as="geometry">
            <mxRectangle x="-1150" y="-1420" width="90" height="23" as="alternateBounds" />
          </mxGeometry>
        </mxCell>
        <mxCell id="yWk265zMaQrSM_9iUtJS-2" value="" style="ellipse;shape=cloud;whiteSpace=wrap;html=1;gradientDirection=east;strokeColor=#82b366;fillColor=#d5e8d4;" parent="yWk265zMaQrSM_9iUtJS-1" vertex="1">
          <mxGeometry x="160" y="52.5" width="750" height="467.5" as="geometry" />
        </mxCell>
        <mxCell id="yWk265zMaQrSM_9iUtJS-10" value="Sub: pop-health-dev&lt;br&gt;RG: rg-archr-westus2" style="rounded=0;whiteSpace=wrap;html=1;shadow=0;" parent="yWk265zMaQrSM_9iUtJS-1" vertex="1">
          <mxGeometry x="480" y="160" width="120" height="60" as="geometry" />
        </mxCell>
        <mxCell id="yWk265zMaQrSM_9iUtJS-11" value="" style="shape=waypoint;sketch=0;fillStyle=solid;size=6;pointerEvents=1;points=[];fillColor=none;resizable=0;rotatable=0;perimeter=centerPerimeter;snapToPoint=1;rounded=1;shadow=0;fontSize=9;strokeColor=#000000;strokeWidth=1;opacity=0;" parent="yWk265zMaQrSM_9iUtJS-1" vertex="1">
          <mxGeometry x="1241" y="820" width="40" height="40" as="geometry" />
        </mxCell>
        <mxCell id="yWk265zMaQrSM_9iUtJS-20" value="" style="group" parent="yWk265zMaQrSM_9iUtJS-1" vertex="1" connectable="0">
          <mxGeometry x="415.5" y="290" width="239" height="64" as="geometry" />
        </mxCell>
        <mxCell id="yWk265zMaQrSM_9iUtJS-18" value="Archer Analysis 6.0.4&lt;br&gt;Standard E32-8s v3 &lt;br&gt;[8 vcpus, 256 Gib memory]&amp;nbsp;" style="html=1;dashed=0;whitespace=wrap;align=center;" parent="yWk265zMaQrSM_9iUtJS-20" vertex="1">
          <mxGeometry x="69" width="170" height="60" as="geometry" />
        </mxCell>
        <mxCell id="yWk265zMaQrSM_9iUtJS-17" value="" style="aspect=fixed;html=1;points=[];align=center;image;fontSize=12;image=img/lib/azure2/compute/Virtual_Machine.svg;" parent="yWk265zMaQrSM_9iUtJS-20" vertex="1">
          <mxGeometry width="69" height="64" as="geometry" />
        </mxCell>
        <mxCell id="yWk265zMaQrSM_9iUtJS-22" value="" style="endArrow=none;html=1;fontSize=9;strokeWidth=1;exitX=0.75;exitY=1;exitDx=0;exitDy=0;fillColor=#e1d5e7;strokeColor=#9673a6;endFill=0;startArrow=classic;startFill=1;" parent="1" source="yWk265zMaQrSM_9iUtJS-18" edge="1">
          <mxGeometry width="50" height="50" relative="1" as="geometry">
            <mxPoint x="-80.00000000000045" y="-20.5" as="sourcePoint" />
            <mxPoint x="-90" y="-40" as="targetPoint" />
          </mxGeometry>
        </mxCell>
        <mxCell id="yWk265zMaQrSM_9iUtJS-23" style="edgeStyle=orthogonalEdgeStyle;rounded=0;orthogonalLoop=1;jettySize=auto;html=1;exitX=0.5;exitY=1;exitDx=0;exitDy=0;entryX=0;entryY=0.5;entryDx=0;entryDy=0;startArrow=none;startFill=0;endArrow=none;endFill=0;strokeColor=#9673A6;" parent="1" source="yWk265zMaQrSM_9iUtJS-18" target="ADxAo6VJDCDAHwZJdcY--343" edge="1">
          <mxGeometry relative="1" as="geometry">
            <Array as="points">
              <mxPoint x="-610" y="-640" />
              <mxPoint x="-610" y="139" />
            </Array>
          </mxGeometry>
        </mxCell>
      </root>
    </mxGraphModel>
  </diagram>
</mxfile>
